<svg class="doodle" viewBox="0 0 120 120" aria-hidden="true" focusable="false"><path class="ln c-b" stroke-width="3.2" d="M59.3 10.5C59.9 11.6 61.6 14.9 63 17C64.4 19 66.1 20.8 67.7 22.7C69.2 24.6 70.8 26.5 72.4 28.5C73.9 30.4 75.6 32.2 77.1 34.2C78.6 36.2 80 38.3 81.3 40.2C82.6 42.2 85 44.1 85 46.1C85 48 82.5 49.7 81.4 51.8C80.3 53.8 79.5 56.3 78.4 58.5C77.4 60.7 76.2 62.8 75.1 65C74.1 67.2 73.3 69.6 72.1 71.7C71 73.9 69.7 76 68.4 78C67.2 80.1 65.8 82 64.4 84.1C63 86.2 61.5 90.7 60 90.7C58.5 90.7 56.9 86.3 55.5 84.2C54 82.1 52.6 80.2 51.3 78.2C50 76.1 48.7 74.1 47.5 71.9C46.4 69.8 45.4 67.5 44.3 65.3C43.3 63.1 42.3 60.9 41.3 58.7C40.2 56.5 39.2 54.2 38 52.1C36.8 50 34.1 48 34.1 46C34.1 44 36.7 41.8 38.1 39.9C39.6 37.9 41.2 36 42.8 34.1C44.4 32.2 45.9 30.3 47.5 28.4C49.1 26.5 50.7 24.6 52.3 22.7C53.9 20.8 55.6 18.8 56.9 16.9C58.2 15 59 11.6 60.1 11.4C61.2 11.2 62.8 15.1 63.3 15.8" pathLength="1"/><path class="ln gh c-b" stroke-width="1.8" d="M59.9 10.6C60.8 11.4 63.7 13.8 65.5 15.4C67.2 17.1 68.9 18.6 70.1 20.7C71.4 22.9 71.7 26.1 72.9 28.4C74.1 30.7 75.8 32.2 77.2 34.3C78.5 36.3 79.7 38.8 80.9 40.7C82.1 42.7 84.3 44.2 84.4 46C84.5 47.9 82.4 50 81.5 51.8C80.5 53.7 79.7 55 78.6 57.2C77.5 59.5 76.1 63.1 74.8 65.3C73.4 67.4 72 68.4 70.7 70.3C69.5 72.3 68.5 74.5 67.2 76.8C65.9 79.1 64 81.7 62.9 84.1C61.8 86.4 61.8 91.1 60.5 90.9C59.3 90.8 57 85.4 55.4 83.2C53.8 81.1 52.2 79.9 50.9 78C49.5 76.1 48.5 73.8 47.3 71.8C46.2 69.7 45.2 67.7 44 65.7C42.7 63.6 40.8 61.5 39.6 59.5C38.3 57.5 37.2 56.1 36.2 53.8C35.2 51.6 33.1 48.4 33.6 46C34.1 43.7 37.4 41.7 39.2 39.7C41 37.7 43 36 44.2 34C45.5 32.1 45.5 29.9 46.7 28C47.9 26.1 50 24.3 51.5 22.5C52.9 20.7 53.9 19.1 55.4 17.3C57 15.5 59.2 12.1 60.6 11.7C62.1 11.3 63.6 14.5 64.2 15" pathLength="1"/><path class="ln c-b" stroke-width="2.2" d="M60.6 10C60.5 11.2 60.3 14.8 60.3 17.3C60.2 19.7 60.3 22.1 60.2 24.5C60.2 27 60.1 29.4 60.1 31.8C60.2 34.2 60.3 36.7 60.4 39.1C60.4 41.5 60.4 43.9 60.3 46.4C60.3 48.8 60.2 51.2 60.2 53.6C60.1 56.1 60 58.5 60 60.9C59.9 63.3 59.8 65.8 59.7 68.2C59.7 70.6 59.7 73 59.7 75.5C59.7 77.9 59.6 80.3 59.7 82.7C59.7 85.2 59.8 88.8 59.8 90" pathLength="1"/><path class="ln gh c-b" stroke-width="1.2" d="M59.7 10.8C59.7 11.9 59.9 15.3 60 17.6C60.2 19.8 60.9 22.2 60.7 24.5C60.6 26.7 59.2 28.4 59.1 30.8C59.1 33.3 60 36.3 60.3 39C60.5 41.8 60.8 45 60.6 47.3C60.5 49.6 59.6 50.9 59.5 53C59.4 55.1 60.1 57.6 60.1 60C60.1 62.3 59.3 64.8 59.3 67.3C59.3 69.9 59.9 72.7 60 75.3C60.1 78 59.6 80.5 59.8 83.1C60 85.7 60.7 89.4 60.9 90.7" pathLength="1"/><path class="ln c-b" stroke-width="2.2" d="M34 45.7C35.2 45.7 39 45.7 41.4 45.7C43.9 45.7 46.4 45.8 48.9 45.8C51.3 45.8 53.8 45.7 56.3 45.7C58.8 45.7 61.2 45.6 63.7 45.6C66.2 45.5 68.7 45.4 71.1 45.5C73.6 45.6 76.1 45.8 78.6 45.9C81 46 84.8 46.1 86 46.2" pathLength="1"/><path class="ln gh c-b" stroke-width="1.2" d="M34.1 45.8C35.2 45.7 38.2 45.4 40.8 45.6C43.4 45.8 46.9 46.8 49.4 46.7C52 46.7 53.9 45.3 56.2 45.1C58.4 44.9 60.6 45.2 63.1 45.4C65.5 45.7 68.3 46.6 70.9 46.7C73.5 46.7 76.1 46.1 78.6 45.8C81.2 45.5 85 45 86.3 44.9" pathLength="1"/><path class="ln c-c" stroke-width="2.6" d="M59.6 89.6C58.8 90.5 56.4 93.1 54.9 94.9C53.3 96.6 50 98.7 50.2 100C50.4 101.3 54.1 101.8 56.1 102.8C58.1 103.8 61.9 104.6 62 106C62.2 107.4 58.7 109.4 57.1 111.1C55.5 112.8 53.1 115.4 52.3 116.3" pathLength="1"/></svg>