<svg class="doodle edge" viewBox="0 0 420 320" aria-hidden="true" focusable="false"><path class="ln c-c" stroke-width="2.6" d="M150.3 57.5C149.6 58.3 147.4 60.9 145.9 62.5C144.4 64.1 142.9 67.2 141.4 67.2C139.9 67.2 138.5 64 136.9 62.5C135.4 61 132.3 59.9 132.3 58.5C132.2 57.1 135.2 55.6 136.5 54.1C137.9 52.5 139 49.3 140.5 49.2C141.9 49.1 143.5 52 145.1 53.4C146.8 54.8 149.6 56.7 150.2 57.7C150.8 58.6 149 58.7 148.8 58.9" pathLength="1"/><path class="ln gh c-c" stroke-width="1.4" d="M149.5 57C149 57.9 147.5 60.5 146.1 62.2C144.6 63.9 142.6 67.2 141 67.2C139.5 67.2 138.2 63.6 136.7 62.2C135.3 60.8 132.5 60.3 132.3 58.9C132.2 57.5 134.3 55.4 135.6 53.9C137 52.3 138.8 49.8 140.5 49.6C142.2 49.4 144 51.6 145.8 52.8C147.6 54 150.7 55.6 151.3 56.8C151.9 58 149.5 59.3 149.1 59.8" pathLength="1"/><path class="ln c-c" stroke-width="2" d="M137.9 53C137.5 53.3 136.2 54 135.8 55C135.5 56 134.9 59.2 135.9 58.8C136.8 58.4 140 53.6 141.7 52.6C143.5 51.7 147.3 51.6 146.4 53.3C145.5 55.1 137.3 61.6 136.2 63.2C135.1 64.8 138.3 64 139.9 63C141.5 61.9 144.9 58.1 146 57.1" pathLength="1"/><path class="ln c-c" stroke-width="2.6" d="M166.4 219.8C165.8 218.8 163.9 215.8 162.6 213.7C161.3 211.7 159.9 209.7 158.6 207.7C157.3 205.6 154.4 202.6 154.9 201.5C155.4 200.4 159.4 201.3 161.6 201.2C163.9 201.1 166.1 201 168.3 200.9C170.6 200.9 174.6 199.7 175.2 200.8C175.9 201.9 173.3 205.3 172.3 207.6C171.3 209.8 170.4 211.9 169.4 214.2C168.3 216.4 166.9 220.2 166 220.8C165 221.4 164 218.2 163.7 217.7" pathLength="1"/><path class="ln gh c-c" stroke-width="1.4" d="M167 220.4C166.3 219.3 164 215.8 162.7 213.8C161.4 211.9 160.6 210.7 159.3 208.6C158.1 206.5 154.7 202.8 155 201.5C155.4 200.2 159.2 200.8 161.4 200.7C163.6 200.5 166.1 200.3 168.3 200.4C170.5 200.6 174 200.7 174.7 201.7C175.3 202.8 172.9 204.7 172 206.7C171.1 208.6 170.2 210.8 169.3 213.2C168.3 215.6 166.9 220.1 166.1 220.9C165.3 221.7 164.7 218.5 164.4 218" pathLength="1"/><path class="ln c-c" stroke-width="2.2" d="M169.7 203.9C169.4 204.8 168.3 207.4 167.6 209.1C166.8 210.8 165.9 214.3 165.4 214.2C164.9 214.2 164.8 210.6 164.4 208.7C164 206.9 163.8 203.2 163.1 203C162.4 202.8 160.7 206.7 160.2 207.4" pathLength="1"/><path class="ln c-b" stroke-width="3.4" d="M87.9 86.3C87.7 85.7 86.8 83.8 87 82.8C87.3 81.8 88.6 80.6 89.6 80.4C90.6 80.2 92.3 80.6 93 81.4C93.7 82.1 94.1 83.7 93.9 84.7C93.6 85.6 92.5 86.8 91.6 87.2C90.7 87.5 89 87.2 88.2 86.6C87.4 86 86.7 84.4 86.9 83.4C87 82.3 88.1 80.9 89 80.5C90 80 91.8 80.3 92.6 80.9C93.5 81.5 94.2 83.1 94.1 84.1C94.1 85.2 93.2 86.7 92.2 87.2C91.3 87.7 89.5 87.8 88.5 87.2C87.6 86.7 86.5 85.1 86.5 84C86.5 82.8 87.5 81.2 88.4 80.6C89.4 80 91.2 80 92.2 80.5C93.2 81 94 83 94.3 83.5" pathLength="1"/><path class="ln c-c" stroke-width="2.4" d="M229 52.3C228.9 52.2 228.5 52.1 228.5 51.9C228.4 51.6 228.4 51.2 228.6 51C228.7 50.7 229 50.5 229.4 50.4C229.7 50.3 230.1 50.2 230.6 50.3C231 50.4 231.6 50.5 232 50.9C232.4 51.2 232.9 51.8 233.1 52.4C233.3 53 233.4 53.9 233.2 54.7C233 55.4 232.5 56.3 231.8 56.9C231.2 57.5 230.3 58.1 229.3 58.4C228.3 58.7 227.1 58.8 226 58.5C224.9 58.2 223.6 57.6 222.7 56.7C221.9 55.8 221.1 54.5 220.8 53.2C220.5 51.9 220.4 50.2 220.8 48.8C221.2 47.5 222.1 46 223.2 44.9C224.2 43.8 225.7 42.7 227.3 42.3C228.8 41.8 230.8 41.6 232.5 42C234.2 42.4 236.1 43.3 237.4 44.5C238.8 45.7 240.1 48 240.7 49.3C241.3 50.6 240.9 51.3 241 52.4C241.2 53.4 241.7 54.4 241.6 55.5C241.5 56.5 240.9 57.5 240.4 58.5C240 59.6 239.8 60.7 239.1 61.6C238.4 62.4 237.3 63 236.4 63.8C235.5 64.5 234.1 65.6 233.7 65.9" pathLength="1"/><path class="ln c-c" stroke-width="3.4" d="M58.4 179.1C58 179.4 56.8 180.6 55.9 180.7C55 180.7 53.7 180.1 53.2 179.4C52.7 178.7 52.5 177.3 52.8 176.5C53.1 175.7 54.2 174.8 55.1 174.6C55.9 174.5 57.3 175 57.8 175.6C58.4 176.3 58.5 177.7 58.2 178.4C58 179.2 57 180 56.3 180.2C55.5 180.4 54.3 180.1 53.7 179.5C53.2 179 52.7 177.8 52.9 177C53 176.2 53.9 175.1 54.7 174.9C55.4 174.6 56.8 174.9 57.4 175.4C58 175.9 58.5 177.2 58.4 178C58.2 178.8 57.5 179.9 56.7 180.2C56 180.6 54.6 180.6 53.8 180.1C53.1 179.7 52.3 178.3 52.4 177.4C52.4 176.5 53.7 175.3 54 174.9" pathLength="1"/><path class="ln c-c" stroke-width="3.4" d="M45.9 85.6C45.5 86 44.2 87.8 43.2 88C42.2 88.2 40.5 87.5 39.8 86.8C39.1 86 38.7 84.3 39 83.3C39.2 82.3 40.4 81.1 41.4 80.8C42.4 80.5 44.1 80.9 44.9 81.6C45.6 82.3 46.1 83.9 45.9 84.9C45.7 85.9 44.6 87.1 43.7 87.5C42.7 87.8 41.2 87.5 40.4 86.9C39.6 86.3 38.9 84.9 39 83.9C39.1 82.9 40.1 81.6 41 81.2C41.8 80.7 43.5 80.9 44.3 81.4C45.1 82 45.7 83.4 45.7 84.4C45.7 85.3 44.9 86.6 44.1 87.1C43.3 87.6 41.6 87.8 40.8 87.3C39.9 86.9 39 85.4 39 84.4C38.9 83.5 40.3 81.9 40.5 81.4" pathLength="1"/><path class="ln c-c" stroke-width="2.6" d="M11.4 105.8C12.3 105.7 15 105.5 16.7 105.3C18.5 105.1 20.3 104.9 22.1 104.8C23.9 104.6 25.7 104.6 27.4 104.5C29.2 104.5 31.9 104.4 32.8 104.4" pathLength="1"/><path class="ln c-c" stroke-width="2.6" d="M11.9 111.7C12.8 111.7 15.7 111.7 17.6 111.6C19.4 111.5 21.3 111.6 23.2 111.4C25.1 111.2 27.9 110.7 28.9 110.6" pathLength="1"/><path class="ln c-l" stroke-width="3.4" d="M108.8 48C108.4 48 107 48.4 106.4 48.1C105.7 47.8 104.9 46.9 104.9 46.2C104.8 45.4 105.3 44.3 105.9 43.8C106.5 43.4 107.8 43.3 108.5 43.6C109.1 43.9 109.9 44.8 110 45.6C110.1 46.3 109.8 47.5 109.2 48C108.6 48.5 107.3 48.9 106.6 48.7C105.8 48.4 104.8 47.4 104.6 46.6C104.4 45.8 104.8 44.5 105.4 43.9C106 43.4 107.4 43.1 108.1 43.3C108.9 43.5 109.8 44.4 110 45.2C110.2 45.9 109.9 47.1 109.4 47.6C108.9 48.2 107.8 48.5 107.1 48.4C106.4 48.3 105.5 47.6 105.2 46.9C104.9 46.2 105 45 105.4 44.5C105.8 43.9 107.3 43.6 107.7 43.4" pathLength="1"/><path class="ln c-l" stroke-width="2.6" d="M295.1 24.6C294.5 25.5 292.5 28 291.2 29.7C289.9 31.3 288.5 33 287.1 34.6C285.8 36.3 283.7 38.7 283 39.5" pathLength="1"/><path class="ln c-l" stroke-width="2.6" d="M290.7 20.8C290.1 21.5 288.3 23.5 287.1 25C285.9 26.4 284.8 27.8 283.6 29.2C282.4 30.6 280.5 32.6 279.8 33.2" pathLength="1"/><path class="ln c-l" stroke-width="2.6" d="M286.6 17.1C286 17.7 284.4 19.7 283.2 21C282.1 22.3 280.8 23.5 279.7 24.8C278.5 26.1 276.9 28 276.3 28.7" pathLength="1"/><path class="ln c-c" stroke-width="2.6" d="M289.1 212C289 211 288.9 207.9 288.7 205.8C288.5 203.7 288.3 201.7 288.1 199.5C287.9 197.4 286.5 194.3 287.5 193.1C288.5 192 291.8 192.9 293.9 192.8C296 192.7 298.2 192.8 300.2 192.7C302.2 192.6 304.8 191.4 305.9 192.3C306.9 193.1 306 195.9 306.2 197.9C306.5 199.9 306.9 202.1 307.2 204.1C307.5 206.2 308.9 209.2 308 210.3C307.1 211.4 303.9 210.6 301.8 210.8C299.8 211 297.6 211.2 295.6 211.4C293.5 211.6 290.5 212.2 289.4 211.8C288.3 211.5 289 209.7 288.9 209.2" pathLength="1"/><path class="ln gh c-c" stroke-width="1.4" d="M289.7 212.1C289.4 211 288.2 207.8 288 205.8C287.7 203.8 288.2 202.2 288.1 200.1C288.1 198 286.9 194.8 287.7 193.4C288.5 192.1 291.1 192.1 293.1 191.9C295 191.8 297.5 192.6 299.7 192.6C301.8 192.5 305.1 190.9 306.1 191.6C307.2 192.3 305.7 194.8 305.8 197C305.9 199.1 306.3 202.3 306.7 204.5C307 206.7 308.9 209.4 308 210.3C307.1 211.3 303.5 210.3 301.4 210.4C299.3 210.5 297.6 210.6 295.5 211C293.3 211.5 289.7 213 288.5 212.9C287.4 212.7 288.4 210.6 288.4 210.2" pathLength="1"/><path class="ln c-b" stroke-width="2.6" d="M33.6 4.6C33.5 6.1 34.8 13 33.4 13.8C32 14.6 26.5 8.5 25.1 9.4C23.7 10.3 26.4 18.3 25 19.2C23.6 20.2 18.2 14.1 16.8 15C15.3 15.8 17.8 23.5 16.3 24.3C14.8 25.1 9.1 20.6 7.7 19.8" pathLength="1"/><path class="ln c-b" stroke-width="2.4" d="M348.7 95.8C348.6 95.9 348.6 96.2 348.5 96.4C348.4 96.5 348.1 96.6 347.9 96.5C347.7 96.4 347.3 96.3 347.2 96C347 95.7 346.8 95.3 346.8 94.9C346.8 94.5 346.9 94 347.2 93.6C347.4 93.2 347.8 92.6 348.3 92.3C348.9 92 349.6 91.8 350.4 91.8C351.1 91.9 352 92.1 352.7 92.6C353.4 93 354 93.9 354.3 94.7C354.7 95.6 354.9 96.7 354.8 97.7C354.7 98.7 354.3 99.8 353.6 100.7C353 101.6 352 102.5 351 103C349.9 103.6 348.5 103.9 347.2 103.8C345.9 103.7 344.3 103.3 343.2 102.5C342.1 101.7 341 100.4 340.4 99.1C339.7 97.8 339.3 96.1 339.4 94.5C339.4 93 340 91.2 340.8 89.9C341.7 88.5 343 87 344.5 86.2C345.9 85.3 347.9 84.6 349.7 84.6C351.6 84.6 354.1 85.4 355.4 85.9C356.7 86.5 356.8 87.3 357.6 88C358.3 88.7 359.5 89.7 359.9 90.1" pathLength="1"/><path class="ln c-c" stroke-width="2.6" d="M196.1 42.4C195.6 42.6 194.2 42.8 193.4 43.1C192.7 43.4 191.9 43.7 191.6 44.1C191.2 44.6 191.2 45.3 191.3 45.9C191.4 46.6 191.9 47.4 192.3 48.2C192.7 49 193.3 49.9 193.7 50.7C194.1 51.4 194.7 52.2 194.8 52.9C194.9 53.6 194.8 54.4 194.4 54.9C194 55.4 193.2 55.8 192.5 56.1C191.7 56.3 190.6 56.4 189.7 56.5C188.8 56.7 187.7 56.8 187 57C186.3 57.2 185.6 57.5 185.2 57.9C184.9 58.3 184.8 59 184.9 59.6C185 60.3 185.5 61.1 185.9 61.9C186.3 62.7 186.8 63.6 187.2 64.4C187.5 65.2 188 66 188 66.7C188.1 67.3 187.6 68 187.5 68.3" pathLength="1"/><path class="ln c-l" stroke-width="2.4" d="M13.2 42.5C13.7 43.2 15.1 45.3 16 46.8C16.9 48.3 17.6 49.8 18.4 51.4C19.3 53 21.4 55.9 21 56.4C20.5 56.8 17.5 55 15.8 54.3C14.2 53.6 12.7 52.9 11.1 52.2C9.4 51.5 5.9 50.4 6 49.9C6 49.3 9.7 49.1 11.5 48.8C13.2 48.5 15 48.5 16.6 48.2C18.2 47.9 20.9 46.5 21.1 46.8C21.3 47.1 19 49 17.9 50.2C16.7 51.4 15.5 52.8 14.4 54.1C13.4 55.4 11.8 58.1 11.4 57.9C11.1 57.7 12.1 54.7 12.3 53.1C12.5 51.4 12.6 49.6 12.7 47.9C12.7 46.2 12.6 43.6 12.6 42.7" pathLength="1"/><path class="ln gh c-l" stroke-width="1.3" d="M12 43.3C12.5 43.9 13.9 45.6 14.8 47.1C15.7 48.6 16.8 50.8 17.7 52.3C18.5 53.9 20.2 56 19.9 56.4C19.7 56.8 17.6 55.4 16.1 54.9C14.6 54.3 12.9 53.8 11.1 53C9.2 52.2 5 51 5.1 50.1C5.3 49.1 10.5 47.9 12.2 47.4C13.9 47 13.8 47.5 15.4 47.3C17 47.2 21.4 46.2 21.8 46.7C22.2 47.2 18.8 49.3 17.7 50.5C16.6 51.7 16.5 52.9 15.3 54.1C14.1 55.2 11.2 57.7 10.5 57.5C9.8 57.2 10.7 54 11 52.4C11.3 50.8 12 49.6 12.3 47.9C12.6 46.2 12.6 43.3 12.6 42.3" pathLength="1"/><path class="ln c-s" stroke-width="2.8" d="M58.3 217C57.5 217.3 55.1 218.2 53.5 218.8C51.8 219.4 50.2 219.9 48.6 220.4C46.9 220.9 45.2 221.4 43.6 221.8C41.9 222.2 39.4 222.8 38.5 223" pathLength="1"/><path class="ln c-s" stroke-width="2.8" d="M51.9 229.7C51.7 228.8 50.9 226.4 50.3 224.7C49.8 223.1 49.3 221.5 48.7 219.8C48.1 218.2 47.4 216.6 46.9 215C46.3 213.4 45.7 210.8 45.5 210" pathLength="1"/><path class="ln c-y" stroke-width="2.8" d="M275.2 64.2C276 63.7 278.5 62 280.1 60.9C281.7 59.8 283.3 58.7 285 57.7C286.7 56.7 288.4 55.7 290 54.7C291.7 53.7 294.2 52.2 295.1 51.7" pathLength="1"/><path class="ln c-y" stroke-width="2.8" d="M278.9 48.3C279.4 49.2 280.9 51.7 282 53.3C283 55 284.1 56.6 285.2 58.2C286.3 59.9 287.5 61.4 288.6 63.1C289.7 64.7 291.4 67.1 291.9 67.9" pathLength="1"/><path class="ln c-s" stroke-width="2.8" d="M126.5 83.6C126.1 84.5 125 87.3 124.3 89.2C123.6 91.1 123 93 122.3 94.9C121.6 96.8 120.5 99.7 120.2 100.6" pathLength="1"/><path class="ln c-s" stroke-width="2.8" d="M131.8 95.9C130.9 95.5 128.1 94.2 126.3 93.4C124.4 92.7 122.5 92 120.6 91.3C118.7 90.6 115.9 89.5 115 89.1" pathLength="1"/><path class="ln c-s" stroke-width="2.6" d="M283.7 110.1C284.7 110.1 287.7 110 289.6 110C291.6 109.9 293.6 109.9 295.5 109.9C297.5 109.8 300.5 109.8 301.5 109.8" pathLength="1"/><path class="ln c-s" stroke-width="2.6" d="M283.6 115.9C284.7 115.9 287.8 116.1 289.9 116.1C292 116 294.1 115.9 296.2 115.8C298.3 115.8 301.4 115.7 302.5 115.7" pathLength="1"/><path class="ln c-c" stroke-width="2.6" d="M97 219.9C96.7 221.3 95.7 225.6 95 228.3C94.4 231 94.2 235.9 93 236.3C91.8 236.7 89.6 232.4 87.7 230.7C85.8 229.1 81.5 227.6 81.7 226.3C82 225.1 86.6 224.4 89.2 223.4C91.8 222.3 95.9 220.2 97.1 220.1C98.3 219.9 96.5 222 96.3 222.4" pathLength="1"/><path class="ln gh c-c" stroke-width="1.4" d="M97.4 219.4C97 220.9 95.8 225.6 94.9 228.5C94 231.4 93.4 236.2 92.2 236.8C91 237.4 89.4 233.6 87.7 232C85.9 230.4 81.4 228.4 81.7 227C81.9 225.6 86.9 224.7 89.4 223.6C91.9 222.5 95.3 220.6 96.5 220.3C97.7 220 96.6 221.3 96.6 221.5" pathLength="1"/><path class="ln c-y" stroke-width="3.4" d="M75 114.7C75.6 115 77.9 115.4 78.6 116.3C79.3 117.2 79.6 119.2 79.2 120.3C78.8 121.4 77.3 122.6 76.1 122.8C75 123.1 73.2 122.5 72.4 121.6C71.6 120.8 71.1 118.9 71.4 117.8C71.7 116.7 73.1 115.3 74.2 115C75.3 114.7 77.2 115.2 78 115.9C78.9 116.7 79.4 118.6 79.1 119.6C78.9 120.7 77.7 122 76.6 122.4C75.6 122.8 73.9 122.5 73 121.8C72.2 121.2 71.6 119.5 71.7 118.5C71.8 117.4 72.8 115.9 73.7 115.4C74.7 114.9 76.6 115 77.5 115.6C78.4 116.3 79.2 117.9 79.2 119C79.1 120.1 78.2 121.7 77.2 122.2C76.2 122.7 74 122.2 73.4 122.2" pathLength="1"/><path class="ln c-c" stroke-width="2.6" d="M326.6 145.3C327 145.1 328.7 144.6 329.4 144.2C330.2 143.8 330.9 143.5 331.3 142.9C331.6 142.4 331.6 141.8 331.4 141.1C331.3 140.4 330.8 139.5 330.3 138.6C329.8 137.8 329 136.8 328.4 135.9C327.9 135.1 327.2 134.2 327 133.5C326.8 132.7 326.9 131.9 327.2 131.3C327.6 130.6 328.4 130.1 329.2 129.7C330.1 129.3 331.3 129.1 332.3 128.8C333.3 128.5 334.5 128.4 335.4 128.1C336.2 127.7 337 127.3 337.3 126.8C337.7 126.2 337.7 125.5 337.5 124.7C337.3 124 336.7 123.1 336.1 122.2C335.6 121.4 334.9 120.4 334.4 119.5C333.9 118.6 333.2 117.8 333.1 117.1C333 116.4 333.5 115.5 333.6 115.2" pathLength="1"/><path class="ln c-b" stroke-width="2.6" d="M165.8 112.6C165.9 113.6 166.2 116.7 166.3 118.7C166.5 120.8 166.5 122.8 166.7 124.9C167 126.9 167.4 129.9 167.6 131" pathLength="1"/><path class="ln c-b" stroke-width="2.6" d="M160 113.3C160.1 114.5 160.3 118 160.5 120.4C160.8 122.8 161.4 126.3 161.6 127.4" pathLength="1"/><path class="ln c-b" stroke-width="2.6" d="M155.1 113.9C155.2 114.7 155.3 117.3 155.5 119C155.7 120.8 156 122.5 156.2 124.2C156.5 125.9 156.8 128.4 157 129.3" pathLength="1"/><path class="ln c-b" stroke-width="2.6" d="M148.5 114.7C148.7 115.7 149.2 118.5 149.5 120.5C149.7 122.4 149.9 124.4 150.1 126.3C150.4 128.2 150.7 131.2 150.8 132.1" pathLength="1"/><path class="ln c-y" stroke-width="2.6" d="M173.5 103.7C172.2 103 168.6 100.8 166.1 99.1C163.6 97.3 159 95.7 158.7 93.5C158.3 91.3 162.2 88.4 163.9 85.9C165.7 83.4 167.1 79 169.3 78.7C171.4 78.3 174.3 81.9 176.8 83.6C179.2 85.3 183.6 86.8 184 88.9C184.4 91 180.8 94 179 96.3C177.3 98.7 174.8 102.3 173.6 103.1C172.4 103.9 172.3 101.5 172 101.2" pathLength="1"/><path class="ln gh c-y" stroke-width="1.4" d="M173.9 102.7C172.8 101.8 169.9 98.9 167.6 97.2C165.3 95.6 160.3 94.6 160 92.7C159.7 90.8 164 88.3 165.6 85.9C167.3 83.5 167.8 78.7 169.7 78.5C171.6 78.4 174.7 83.3 177.2 85C179.7 86.7 184.5 86.5 184.7 88.5C184.9 90.4 180 94.1 178.2 96.7C176.5 99.3 175.5 103 174.5 104.1C173.5 105.1 172.6 103.2 172.3 103" pathLength="1"/><path class="ln c-y" stroke-width="2" d="M167.3 84.9C166.9 85.1 165.3 85.6 164.9 86.6C164.6 87.6 164.1 91.2 165.1 90.9C166.1 90.6 169.5 85.8 171.1 84.8C172.8 83.7 176 83 175 84.6C173.9 86.2 166.3 92.3 164.8 94.5C163.4 96.7 163.8 99.3 166.1 97.9C168.3 96.5 176.5 87.4 178.4 86C180.3 84.5 179.1 87.3 177.6 89.2C176.2 91.1 170.2 96.1 169.6 97.5C169 99 172.6 98.5 174 97.9C175.5 97.3 177.5 94.3 178.2 93.6" pathLength="1"/><path class="ln c-s" stroke-width="2.4" d="M196.3 176.4C196.4 175.5 196.6 172.9 196.7 171.2C196.8 169.5 196.9 167.8 197 166.1C197.2 164.3 197.1 160.8 197.6 160.7C198.2 160.6 199.5 163.8 200.4 165.3C201.3 166.8 202.2 168.2 203 169.8C203.8 171.4 205.8 174.4 205.3 174.9C204.8 175.4 201.7 173.5 200.1 172.7C198.5 172 197.1 171.2 195.5 170.4C194 169.6 190.8 168.4 190.9 167.8C191 167.2 194.4 167 196.1 166.7C197.8 166.4 199.5 166.2 201.2 165.9C202.8 165.7 205.9 164.7 206.1 165.2C206.4 165.6 203.7 167.5 202.5 168.7C201.2 169.8 199.9 170.9 198.6 172.1C197.4 173.3 195.6 175.2 195 175.8" pathLength="1"/><path class="ln gh c-s" stroke-width="1.3" d="M194.5 175.8C194.7 174.9 195.5 171.9 195.9 170.2C196.2 168.5 196.2 167.2 196.6 165.6C196.9 164.1 197.7 160.7 198.1 160.9C198.6 161.1 198.7 164.9 199.4 166.6C200.1 168.2 201.3 169.7 202.2 170.9C203.2 172 205.4 173.3 205 173.5C204.7 173.7 201.7 172.6 200.2 172C198.8 171.4 197.7 170.3 196.3 169.6C194.8 169 191.6 168.2 191.5 167.9C191.4 167.6 194.1 167.9 195.5 167.7C197 167.5 198.6 167.2 200.3 166.5C202.1 165.9 205.5 163.4 205.9 163.9C206.2 164.5 203.4 168.4 202.5 169.7C201.5 171 201.6 170.8 200.4 171.9C199.3 173 196.5 175.6 195.7 176.4" pathLength="1"/><path class="ln c-b" stroke-width="2.6" d="M280 167.5C280.3 166.4 281 163.2 281.5 161C282 158.9 282.4 156.7 283 154.5C283.5 152.4 284.6 149.2 284.9 148.2" pathLength="1"/><path class="ln c-b" stroke-width="2.6" d="M286.4 169.2C286.6 168.1 287.2 165 287.6 163C288 161 288.5 159 289 156.9C289.4 154.9 290 151.8 290.2 150.8" pathLength="1"/><path class="ln c-b" stroke-width="2.6" d="M291.5 170.5C291.7 169.6 292.3 167.2 292.7 165.6C293.2 163.9 293.6 162.3 294.1 160.7C294.5 159.1 295.1 157.5 295.6 155.9C296.1 154.3 296.6 151.8 296.9 151" pathLength="1"/><path class="ln c-b" stroke-width="2.6" d="M298.2 172.2C298.4 171.1 299.2 168 299.7 165.9C300.1 163.8 300.6 161.7 301 159.6C301.5 157.5 302.3 154.4 302.5 153.3" pathLength="1"/><path class="ln c-c" stroke-width="2.6" d="M237.3 103.3C238.3 103.3 241.2 103.3 243.1 103.4C245.1 103.4 248.7 102.6 249.3 103.6C249.9 104.5 247.7 107.5 246.8 109.2C245.9 110.9 243.5 113.1 244 113.8C244.4 114.6 247.5 113.7 249.4 113.8C251.3 113.9 254.7 113.4 255.2 114.3C255.7 115.3 253.3 117.7 252.4 119.5C251.5 121.2 249.2 123.8 249.7 124.7C250.3 125.7 253.7 125 255.6 125.1C257.6 125.1 260.8 124.2 261.3 125C261.8 125.8 259.6 128.4 258.7 130C257.8 131.7 256.3 134.2 255.8 135.1" pathLength="1"/><path class="ln c-s" stroke-width="2.6" d="M117.7 19.8C118.4 19.3 120.7 17.8 122.2 16.8C123.7 15.8 125.3 14.9 126.8 14C128.4 13.1 130 12.2 131.5 11.3C133.1 10.3 135.4 8.8 136.1 8.3" pathLength="1"/><path class="ln c-s" stroke-width="2.6" d="M121.8 26.4C122.6 25.8 125.1 24 126.7 22.8C128.4 21.7 130.2 20.7 131.9 19.6C133.7 18.6 136.3 17.2 137.2 16.7" pathLength="1"/><path class="ln c-s" stroke-width="2.6" d="M124.9 31.3C125.8 30.8 128.2 29.1 130 28C131.7 27 133.4 26 135.2 25C136.9 24 139.6 22.6 140.5 22.1" pathLength="1"/><path class="ln c-c" stroke-width="2.8" d="M134.3 165.7C133.9 164.9 132.8 162.3 132 160.7C131.2 159 130.3 157.5 129.4 155.8C128.6 154.2 127.4 151.7 127 150.8" pathLength="1"/><path class="ln c-c" stroke-width="2.8" d="M122.9 161.9C123.7 161.4 126.2 160.1 127.8 159.2C129.4 158.4 131.1 157.6 132.7 156.8C134.4 156 136.9 154.9 137.8 154.5" pathLength="1"/><path class="ln c-c" stroke-width="2.6" d="M186.9 243.6C187 242.5 187.6 239.3 188 237.1C188.3 234.9 188.8 231.6 188.9 230.5" pathLength="1"/><path class="ln c-c" stroke-width="2.6" d="M191.9 244.5C192 243.4 192.4 240.1 192.7 237.9C193.1 235.7 193.7 232.4 193.9 231.3" pathLength="1"/><path class="ln c-c" stroke-width="2.6" d="M197.1 245.4C197.2 244.5 197.5 241.9 197.7 240.2C198 238.5 198.2 236.8 198.4 235.1C198.7 233.4 199.2 230.9 199.4 230.1" pathLength="1"/><path class="ln c-c" stroke-width="2.6" d="M202.6 246.3C202.7 245.3 203.2 242.5 203.4 240.6C203.7 238.7 203.7 236.7 204 234.8C204.2 232.9 204.7 230.1 204.8 229.1" pathLength="1"/><path class="ln c-y" stroke-width="2.6" d="M234.8 23.8C235 22.4 235.5 18.2 235.9 15.5C236.3 12.8 235.6 8.7 237.1 7.6C238.7 6.5 242.4 8.4 245.1 8.8C247.8 9.2 252.2 8.1 253.5 9.7C254.8 11.2 253.2 15.3 252.8 18.1C252.4 21 253 25.6 251.3 26.8C249.6 28.1 245.4 26 242.5 25.5C239.7 25 235.6 24.6 234.3 23.9C232.9 23.2 234.4 21.7 234.4 21.2" pathLength="1"/><path class="ln gh c-y" stroke-width="1.4" d="M235.4 24.5C235.4 23 235.3 18.4 235.5 15.6C235.6 12.8 234.6 8.6 236.2 7.5C237.8 6.4 242 8.4 245.1 8.9C248.1 9.3 252.9 8.7 254.3 10.1C255.7 11.6 254 14.9 253.3 17.5C252.6 20.2 252.1 24.8 250.2 26.1C248.3 27.3 244.7 25.1 241.9 24.8C239 24.5 234.3 25 233.2 24.4C232.1 23.8 234.9 21.7 235.2 21.1" pathLength="1"/></svg>